<svg width="45.000000" height="45.000000" viewBox="0 0 45 45" fill="none" xmlns="http://www.w3.org/2000/svg" xmlns:xlink="http://www.w3.org/1999/xlink">
	<desc>
			Created with Pixso.
	</desc>
	<defs/>
	<circle id="Oval" cx="22.500000" cy="22.500000" r="22.500000" fill="#58BEBF" fill-opacity="0.200000"/>
	<circle id="Oval" cx="22.500000" cy="22.500000" r="22.500000" stroke="#979797" stroke-opacity="0" stroke-width="0.000000"/>
	<path id="Shape" d="M19.6024 28.5415L19.6024 32.7964L14.8746 32.7964L14.8746 9.87805L30.6021 9.87805L30.6021 32.7964L25.875 32.7964L25.875 28.5415L19.6024 28.5415ZM25.875 11.9834L28.5206 11.9834L28.5206 14.6584L25.875 14.6584L25.875 11.9834ZM25.875 15.8722L28.5206 15.8722L28.5206 18.5479L25.875 18.5479L25.875 15.8722ZM25.875 19.7616L28.5206 19.7616L28.5206 22.4359L25.875 22.4359L25.875 19.7616ZM25.875 23.6497L28.5206 23.6497L28.5206 26.326L25.875 26.326L25.875 23.6497ZM21.4163 11.9834L24.0626 11.9834L24.0626 14.6584L21.4163 14.6584L21.4163 11.9834ZM21.4163 15.8722L24.0626 15.8722L24.0626 18.5479L21.4163 18.5479L21.4163 15.8722ZM21.4163 19.7616L24.0626 19.7616L24.0626 22.4359L21.4163 22.4359L21.4163 19.7616ZM21.4163 23.6497L24.0626 23.6497L24.0626 26.326L21.4163 26.326L21.4163 23.6497ZM16.9576 11.9834L19.6031 11.9834L19.6031 14.6584L16.9576 14.6584L16.9576 11.9834ZM16.9576 15.8722L19.6031 15.8722L19.6031 18.5479L16.9576 18.5479L16.9576 15.8722ZM16.9576 19.7616L19.6031 19.7616L19.6031 22.4359L16.9576 22.4359L16.9576 19.7616ZM16.9576 23.6497L19.6031 23.6497L19.6031 26.326L16.9576 26.326L16.9576 23.6497Z" clip-rule="evenodd" fill="#58BEBF" fill-opacity="1.000000" fill-rule="evenodd"/>
</svg>
