<svg width="70.000000" height="70.000000" viewBox="0 0 70 70" fill="none" xmlns="http://www.w3.org/2000/svg" xmlns:xlink="http://www.w3.org/1999/xlink">
	<desc>
			Created with Pixso.
	</desc>
	<defs/>
	<circle id="Oval" cx="35.000000" cy="35.000000" r="35.000000" fill="#58BEBF" fill-opacity="0.200000"/>
	<circle id="Oval" cx="35.000000" cy="35.000000" r="35.000000" stroke="#979797" stroke-opacity="0" stroke-width="0.000000"/>
	<path id="Shape" d="M29.4252 40.1036C29.4252 37.0534 31.9067 34.5718 34.9571 34.5718C38.0074 34.5718 40.489 37.0534 40.489 40.1036C40.489 43.1539 38.0073 45.6355 34.9571 45.6355C31.9068 45.6355 29.4252 43.1539 29.4252 40.1036ZM31.1225 40.7646L33.8597 43.5018L38.7916 38.5699L37.5486 37.327L33.8597 41.0159L32.3655 39.5217L31.1225 40.7646Z" clip-rule="evenodd" fill="#58BEBF" fill-opacity="1.000000" fill-rule="evenodd"/>
	<path id="Path" d="M40.57 23.42L38.38 23.42C38.38 21.53 36.84 20 34.95 20C33.06 20 31.53 21.53 31.53 23.42L29.33 23.42L29.33 27.81L40.57 27.81L40.57 23.42L40.57 23.42Z" fill="#58BEBF" fill-opacity="1.000000" fill-rule="nonzero"/>
	<path id="Shape" d="M42.3346 23.4233L42.3346 29.5694L27.5794 29.5694L27.5794 23.4233L24.0404 23.4233L24.0404 50.0001L45.8736 50.0001L45.8736 23.4233L42.3346 23.4233ZM27.6673 40.1039C27.6673 44.1234 30.9374 47.3936 34.957 47.3936C38.9766 47.3936 42.2467 44.1234 42.2467 40.1039C42.2467 36.0844 38.9765 32.8142 34.957 32.8142C30.9375 32.8142 27.6673 36.0844 27.6673 40.1039Z" clip-rule="evenodd" fill="#58BEBF" fill-opacity="1.000000" fill-rule="evenodd"/>
</svg>
