<svg width="70.000000" height="70.000000" viewBox="0 0 70 70" fill="none" xmlns="http://www.w3.org/2000/svg" xmlns:xlink="http://www.w3.org/1999/xlink">
	<desc>
			Created with Pixso.
	</desc>
	<defs/>
	<circle id="Oval" cx="35.000000" cy="35.000000" r="35.000000" fill="#58BEBF" fill-opacity="0.200000"/>
	<circle id="Oval" cx="35.000000" cy="35.000000" r="35.000000" stroke="#979797" stroke-opacity="0" stroke-width="0.000000"/>
	<path id="Shape" d="M48.7173 26.8293L48.7173 47.7318L54.0962 47.7318L54.0962 50L15.0962 50L15.0962 47.7318L20.4751 47.7318L20.4751 34.0228L17.1609 37.3123L15.5451 35.7085L22.8314 28.4763L28.0016 33.6082L40.7973 20.9074L46.1246 26.1951L50.0809 22.2682L46.2635 22.2682L46.2635 20L53.9819 20L53.9819 27.6609L51.6967 27.6609L51.6967 23.8719L48.7173 26.8293ZM42.6235 25.9277L42.6235 47.7318L37.643 47.7318L37.643 27.246L40.7973 24.1152L42.6235 25.9277ZM28.0016 36.8159L26.5688 35.3936L26.5688 47.7318L31.5493 47.7318L31.5493 33.2945L28.0016 36.8159Z" clip-rule="evenodd" fill="#58BEBF" fill-opacity="1.000000" fill-rule="evenodd"/>
</svg>
