<svg width="70.000000" height="70.000000" viewBox="0 0 70 70" fill="none" xmlns="http://www.w3.org/2000/svg" xmlns:xlink="http://www.w3.org/1999/xlink">
	<desc>
			Created with Pixso.
	</desc>
	<defs/>
	<circle id="Oval" cx="35.000000" cy="35.000000" r="35.000000" fill="#58BEBF" fill-opacity="0.200000"/>
	<circle id="Oval" cx="35.000000" cy="35.000000" r="35.000000" stroke="#979797" stroke-opacity="0" stroke-width="0.000000"/>
	<path id="Path" d="M51.26 30.85L43.87 30.85C41.68 30.85 39.9 32.63 39.9 34.82L39.9 46.02C39.9 48.21 41.68 49.99 43.87 49.99L52.16 49.99L53.56 33.36C53.67 32.01 52.61 30.85 51.26 30.85Z" fill="#58BEBF" fill-opacity="1.000000" fill-rule="nonzero"/>
	<path id="Path" d="M35.93 20L34.09 20L33.37 28.83C33.17 31.34 31.08 33.27 28.56 33.27L27.18 33.27L27.18 47.58L31.87 47.58C31.87 47.61 31.87 47.64 31.87 47.68C31.87 48.95 32.9 49.99 34.18 49.99L39.23 49.99C38.31 48.92 37.76 47.53 37.76 46.02L37.76 34.82C37.76 32.97 38.59 31.3 39.9 30.18L39.9 23.97C39.9 21.78 38.12 20 35.93 20L35.93 20Z" fill="#58BEBF" fill-opacity="1.000000" fill-rule="nonzero"/>
	<path id="Path" d="M17 31.83L25.04 31.83L25.04 49.01L17 49.01L17 31.83Z" fill="#58BEBF" fill-opacity="1.000000" fill-rule="nonzero"/>
</svg>
