<svg width="70.000000" height="70.000000" viewBox="0 0 70 70" fill="none" xmlns="http://www.w3.org/2000/svg" xmlns:xlink="http://www.w3.org/1999/xlink">
	<desc>
			Created with Pixso.
	</desc>
	<defs/>
	<path id="Shape" d="M70 9.47871L44.1291 9.47871L44.1291 5.4775L35 0L25.8709 5.4775L25.8709 9.47871L0 9.47871L0 46.5295L25.8709 46.5295L25.8709 70L44.1293 70L44.1293 46.5295L70 46.5295L70 9.47871ZM35 4.78311L29.9724 7.79967L29.9723 7.79967L29.9723 9.47857L40.0276 9.47857L40.0276 7.79967L35 4.78311ZM4.10156 13.5803L4.10156 42.4279L65.8984 42.4279L65.8984 13.5803L4.10156 13.5803ZM40.0276 65.8984L29.9723 65.8984L29.9723 46.5295L40.0276 46.5295L40.0276 65.8984Z" clip-rule="evenodd" fill="#F78434" fill-opacity="1.000000" fill-rule="evenodd"/>
	<path id="Shape" d="M25.5652 37.2041L27.0712 33.2502L32.4919 33.2502L33.9827 37.2006L37.82 35.7524L31.5056 19.0203L28.1006 19.0238L21.7323 35.7444L25.5652 37.2041ZM28.6335 29.1487L30.9441 29.1487L29.7942 26.1012L28.6335 29.1487Z" clip-rule="evenodd" fill="#F78434" fill-opacity="1.000000" fill-rule="evenodd"/>
	<path id="Path" d="M48.26 32.5L43.47 32.5L43.47 18.84L39.37 18.84L39.37 36.61L48.26 36.61L48.26 32.5Z" fill="#F78434" fill-opacity="1.000000" fill-rule="nonzero"/>
	<path id="Path" d="M60.44 32.5L54.73 32.5L54.73 29.83L60.02 29.83L60.02 25.73L54.73 25.73L54.73 23.05L60.44 23.05L60.44 18.95L50.63 18.95L50.63 36.61L60.44 36.61L60.44 32.5Z" fill="#F78434" fill-opacity="1.000000" fill-rule="nonzero"/>
	<path id="Path" d="M14.42 23.06C15.96 22.38 18.29 24.04 19.53 25.17L22.08 21.95C18.34 18.53 15.2 18.5 13.21 19.14C11.23 19.74 9.82 21.31 9.53 23.25C9.25 25.12 10.05 26.91 11.62 27.93C11.89 28.11 13.76 28.91 16.01 29.75C16.84 30.06 17.7 30.61 17.58 31.23C17.49 31.74 16.78 32.5 15.53 32.5C13.52 32.62 12.02 30.98 10.91 29.63L7.87 32.39C9.74 34.79 12.29 36.67 15.53 36.61C18.58 36.61 21.14 34.65 21.62 31.95C21.99 29.91 21.08 27.25 17.43 25.9C15.81 25.3 14.3 24.65 13.77 24.42C13.4 23.96 13.54 23.42 14.42 23.06Z" fill="#F78434" fill-opacity="1.000000" fill-rule="nonzero"/>
</svg>
