<svg width="50.000000" height="50.000000" viewBox="0 0 50 50" fill="none" xmlns="http://www.w3.org/2000/svg" xmlns:xlink="http://www.w3.org/1999/xlink">
	<desc>
			Created with Pixso.
	</desc>
	<defs/>
	<circle id="Oval" cx="25.000000" cy="25.000000" r="25.000000" fill="#FFFFFF" fill-opacity="1.000000"/>
	<circle id="Oval" cx="25.000000" cy="25.000000" r="25.000000" stroke="#979797" stroke-opacity="0" stroke-width="0.000000"/>
	<path id="Triangle" d="M33.21 24.6C33.94 24.97 33.94 26.02 33.21 26.39L21.44 32.27C20.78 32.6 20 32.12 20 31.38L20 19.61C20 18.87 20.78 18.39 21.44 18.72L33.21 24.6Z" fill="#F78434" fill-opacity="1.000000" fill-rule="evenodd"/>
	<path id="Triangle" d="M21.44 32.27C20.78 32.6 20 32.12 20 31.38L20 19.61C20 18.87 20.78 18.39 21.44 18.72L33.21 24.6C33.94 24.97 33.94 26.02 33.21 26.39L21.44 32.27Z" stroke="#979797" stroke-opacity="0" stroke-width="0.000000"/>
</svg>
