<svg width="70.000000" height="69.985352" viewBox="0 0 70 69.9854" fill="none" xmlns="http://www.w3.org/2000/svg" xmlns:xlink="http://www.w3.org/1999/xlink">
	<desc>
			Created with Pixso.
	</desc>
	<defs/>
	<path id="Shape" d="M24.3061 27.299L27.3452 24.5447C27.3452 24.5447 29.3536 27.7147 32.9492 28.6821L32.9492 18.8699C28.3589 17.2754 26.2523 15.0376 26.6444 10.5287C27.0752 7.38733 29.7258 4.82631 32.9492 4.13588L32.9492 0L37.0508 0L37.0508 3.90524C39.4961 3.96922 43.3294 5.95478 45.6873 8.14379L43.1428 11.3608C41.4573 9.91621 39.1232 8.25576 37.0509 8.04111L37.0509 16.0966C41.8484 17.5712 46.5092 20.7528 45.582 26.0679C44.9176 29.9827 40.956 32.9283 37.0509 33.1953L37.0509 37.0729L32.9493 37.0729L32.9493 32.9122C29.374 32.2012 26.4592 29.9813 24.3061 27.299ZM30.7013 11.1325C30.8798 9.93248 31.7063 8.95275 32.9492 8.43158L32.9492 14.4205C30.6511 13.6691 30.533 12.2622 30.7013 11.1325ZM37.0508 29.0698C39.6106 28.7001 41.5442 27.0044 41.5442 25.3468C41.5442 21.8649 37.2044 20.5447 37.0508 20.4872L37.0508 29.0698Z" clip-rule="evenodd" fill="#FFFFFF" fill-opacity="1.000000" fill-rule="evenodd"/>
	<path id="Shape" d="M62.9394 48.9629L62.9394 56.4698L70 56.4698L70 60.5714L0 60.5714L0 56.4698L7.06058 56.4698L7.06058 48.963L6.15317 49.5074L4.04279 45.9904L18.5254 37.3008L33.0081 45.9904L30.8978 49.5074L29.9904 48.963L29.9904 56.4698L40.0098 56.4698L40.0098 48.963L39.1024 49.5074L36.992 45.9904L51.4746 37.3008L65.9572 45.9902L63.8468 49.5073L62.9394 48.9629ZM20.5762 56.4697L20.5762 51.4599L16.4746 51.4599L16.4746 56.4697L11.1621 56.4697L11.1621 46.502L18.5254 42.0839L25.8886 46.502L25.8886 56.4697L20.5762 56.4697ZM53.5254 51.4599L53.5254 56.4697L58.8379 56.4697L58.8379 46.502L51.4746 42.0839L44.1114 46.502L44.1114 56.4697L49.4238 56.4697L49.4238 51.4599L53.5254 51.4599Z" clip-rule="evenodd" fill="#FFFFFF" fill-opacity="1.000000" fill-rule="evenodd"/>
	<path id="Path" d="M0 65.88L70 65.88L70 69.98L0 69.98L0 65.88Z" fill="#FFFFFF" fill-opacity="1.000000" fill-rule="nonzero"/>
</svg>
