<svg width="40.799988" height="41.599976" viewBox="0 0 40.8 41.6" fill="none" xmlns="http://www.w3.org/2000/svg" xmlns:xlink="http://www.w3.org/1999/xlink">
	<desc>
			Created with Pixso.
	</desc>
	<defs/>
	<mask id="mask_2_259" fill="white">
		<path id="Combined Shape" d="M13.6055 13.6C13.6018 13.7329 13.6 13.8662 13.6 14C13.6 21.7301 19.686 27.9969 27.1946 28C26.9889 35.547 20.9811 41.6 13.6 41.6C6.08893 41.6 0 35.332 0 27.6C0 19.868 6.08893 13.6 13.6 13.6L13.6055 13.6ZM13.6055 13.6C13.8112 6.05298 19.8189 0 27.2 0C34.7111 0 40.8 6.26807 40.8 14C40.8 21.7319 34.7111 28 27.2 28L27.1946 28C27.1982 27.8671 27.2 27.7338 27.2 27.6C27.2 19.8699 21.114 13.603 13.6055 13.6Z" clip-rule="evenodd" fill="" fill-opacity="1.000000" fill-rule="evenodd"/>
	</mask>
	<path id="Combined Shape" d="M13.6055 13.6C13.6018 13.7329 13.6 13.8662 13.6 14C13.6 21.7301 19.686 27.9969 27.1946 28C26.9889 35.547 20.9811 41.6 13.6 41.6C6.08893 41.6 0 35.332 0 27.6C0 19.868 6.08893 13.6 13.6 13.6L13.6055 13.6ZM13.6055 13.6C13.8112 6.05298 19.8189 0 27.2 0C34.7111 0 40.8 6.26807 40.8 14C40.8 21.7319 34.7111 28 27.2 28L27.1946 28C27.1982 27.8671 27.2 27.7338 27.2 27.6C27.2 19.8699 21.114 13.603 13.6055 13.6Z" clip-rule="evenodd" fill="#D8D8D8" fill-opacity="1.000000" fill-rule="evenodd" mask="url(#mask_2_259)"/>
	<path id="Combined Shape" d="" fill="#979797" fill-opacity="0.000000" fill-rule="nonzero"/>
</svg>
