<svg width="24.000000" height="18.281250" viewBox="0 0 24 18.2812" fill="none" xmlns="http://www.w3.org/2000/svg" xmlns:xlink="http://www.w3.org/1999/xlink">
	<desc>
			Created with Pixso.
	</desc>
	<defs/>
	<path id="Path" d="M21.89 0L2.1 0C1.78 0 1.48 0.07 1.2 0.21L11.95 10.95L14.36 8.64C14.36 8.64 14.36 8.64 14.36 8.64C14.36 8.64 14.36 8.64 14.36 8.64L22.79 0.21C22.51 0.07 22.21 0 21.89 0Z" fill="#E8E8E8" fill-opacity="1.000000" fill-rule="nonzero"/>
	<path id="Path" d="M23.78 1.2L15.85 9.14L23.78 17.07C23.92 16.8 24 16.49 24 16.17L24 2.1C24 1.78 23.92 1.48 23.78 1.2Z" fill="#E8E8E8" fill-opacity="1.000000" fill-rule="nonzero"/>
	<path id="Path" d="M0.21 1.2C0.07 1.48 0 1.78 0 2.1L0 16.17C0 16.49 0.07 16.8 0.21 17.07L8.14 9.14L0.21 1.2Z" fill="#E8E8E8" fill-opacity="1.000000" fill-rule="nonzero"/>
	<path id="Path" d="M14.85 10.13L12.45 12.45C12.31 12.58 12.13 12.65 11.95 12.65C11.77 12.65 11.59 12.58 11.45 12.45L9.14 10.13L1.2 18.06C1.48 18.2 1.78 18.28 2.1 18.28L21.89 18.28C22.21 18.28 22.51 18.2 22.79 18.06L14.85 10.13Z" fill="#E8E8E8" fill-opacity="1.000000" fill-rule="nonzero"/>
</svg>
