<svg width="28.000000" height="31.199951" viewBox="0 0 28 31.2" fill="none" xmlns="http://www.w3.org/2000/svg" xmlns:xlink="http://www.w3.org/1999/xlink">
	<desc>
			Created with Pixso.
	</desc>
	<defs/>
	<path id="Path" d="M0 0L0 2.4L28 2.4L28 0L0 0Z" fill="#D8D8D8" fill-opacity="1.000000" fill-rule="nonzero"/>
	<path id="Path" d="M0 4.79L0 7.19L28 7.19L28 4.79L0 4.79Z" fill="#D8D8D8" fill-opacity="1.000000" fill-rule="nonzero"/>
	<path id="Path" d="M0 9.59L0 12L28 12L28 9.59L0 9.59Z" fill="#D8D8D8" fill-opacity="1.000000" fill-rule="nonzero"/>
	<path id="Path" d="M0 14.4L0 16.79L28 16.79L28 14.4L0 14.4Z" fill="#D8D8D8" fill-opacity="1.000000" fill-rule="nonzero"/>
	<path id="Path" d="M0 19.2L0 21.6L28 21.6L28 19.2L0 19.2Z" fill="#D8D8D8" fill-opacity="1.000000" fill-rule="nonzero"/>
	<path id="Path" d="M0 24L0 26.4L28 26.4L28 24L0 24Z" fill="#D8D8D8" fill-opacity="1.000000" fill-rule="nonzero"/>
	<path id="Path" d="M0 28.79L0 31.2L28 31.2L28 28.79L0 28.79Z" fill="#D8D8D8" fill-opacity="1.000000" fill-rule="nonzero"/>
</svg>
