<svg width="19.997681" height="20.000000" viewBox="0 0 19.9977 20" fill="none" xmlns="http://www.w3.org/2000/svg" xmlns:xlink="http://www.w3.org/1999/xlink">
	<desc>
			Created with Pixso.
	</desc>
	<defs/>
	<mask id="mask2_30" mask-type="alpha" maskUnits="userSpaceOnUse" x="0.000000" y="0.000000" width="19.997681" height="20.000000">
		<path id="Clip 2" d="M0 0L19.99 0L19.99 20L0 20L0 0Z" fill="#000000" fill-opacity="1.000000" fill-rule="evenodd"/>
	</mask>
	<g mask="url(#mask2_30)">
		<path id="Fill 1" d="M18.89 0L1.1 0C0.49 0 -0.01 0.49 -0.01 1.1L-0.01 18.89C-0.01 19.5 0.49 20 1.1 20L18.89 20C19.5 20 19.99 19.5 19.99 18.89C19.99 18.89 19.99 18.89 19.99 18.89L19.99 1.1C19.99 0.49 19.5 -0.01 18.89 0Z" fill="#4267B2" fill-opacity="1.000000" fill-rule="evenodd"/>
	</g>
	<path id="Fill 4" d="M13.8 20L13.8 12.26L16.41 12.26L16.8 9.23L13.8 9.23L13.8 7.31C13.8 6.43 14.04 5.83 15.3 5.83L16.89 5.83L16.89 3.13C16.61 3.1 15.66 3.02 14.56 3.02C12.25 3.02 10.68 4.42 10.68 7.01L10.68 9.23L8.08 9.23L8.08 12.26L10.68 12.26L10.68 20L13.8 20Z" fill="#FFFFFF" fill-opacity="1.000000" fill-rule="evenodd"/>
</svg>
