<svg width="24.460632" height="19.918213" viewBox="0 0 24.4606 19.9182" fill="none" xmlns="http://www.w3.org/2000/svg" xmlns:xlink="http://www.w3.org/1999/xlink">
	<desc>
			Created with Pixso.
	</desc>
	<defs/>
	<mask id="mask2_26" mask-type="alpha" maskUnits="userSpaceOnUse" x="0.000000" y="0.000000" width="24.460632" height="19.918213">
		<path id="Clip 2" d="M0 0L24.46 0L24.46 19.91L0 19.91L0 0Z" fill="#000000" fill-opacity="1.000000" fill-rule="evenodd"/>
	</mask>
	<g mask="url(#mask2_26)">
		<path id="Fill 1" d="M7.65 19.91C16.9 19.91 21.96 12.25 21.96 5.61C21.96 5.39 21.96 5.17 21.95 4.96C22.93 4.25 23.78 3.36 24.46 2.35C23.55 2.75 22.58 3.02 21.57 3.14C22.61 2.52 23.4 1.54 23.78 0.36C22.81 0.94 21.73 1.36 20.59 1.58C19.67 0.61 18.36 0 16.92 0C14.14 0 11.89 2.25 11.89 5.02C11.89 5.42 11.93 5.8 12.02 6.17C7.84 5.96 4.13 3.96 1.65 0.92C1.22 1.66 0.97 2.52 0.97 3.44C0.97 5.19 1.86 6.73 3.21 7.63C2.38 7.6 1.61 7.38 0.93 7C0.93 7.02 0.93 7.04 0.93 7.06C0.93 9.5 2.66 11.53 4.97 11.99C4.54 12.11 4.1 12.17 3.64 12.17C3.32 12.17 3 12.14 2.69 12.08C3.33 14.08 5.19 15.53 7.39 15.57C5.67 16.92 3.5 17.72 1.15 17.72C0.74 17.72 0.34 17.7 -0.05 17.65C2.17 19.08 4.82 19.91 7.65 19.91L7.65 19.91Z" fill="#1DA1F2" fill-opacity="1.000000" fill-rule="evenodd"/>
	</g>
</svg>
